<?xml version="1.0" encoding="UTF-8" standalone="no"?>
<!-- Created with Inkscape (http://www.inkscape.org/) -->

<svg
   width="84.120834mm"
   height="18.401995mm"
   viewBox="0 0 84.120834 18.401995"
   version="1.1"
   id="svg1"
   xmlns="http://www.w3.org/2000/svg"
   xmlns:svg="http://www.w3.org/2000/svg">
  <defs
     id="defs1" />
  <g
     id="layer1"
     transform="translate(-108.2146,-160.3375)">
    <path
       id="rect10-1-2"
       style="fill:#1a1a1a;stroke-width:0.176243"
       d="m 187.91412,160.53703 c -1.9457,-0.006 -5.31099,1.63742 -7.34272,2.77141 l -9.57408,5.34386 c -2.41454,1.34765 -6.42104,3.97886 -6.63112,5.76037 -0.11385,0.16765 -0.17793,0.352 -0.18346,0.55397 l -0.0217,0.79168 c -0.0575,2.10371 5.50672,2.56639 8.57983,2.6572 l 10.24176,0.30283 c 3.0731,0.0908 9.27322,-0.0243 9.33069,-2.12804 l 0.0217,-0.79168 c 0.0555,-2.03343 -5.50672,-2.56639 -8.57983,-2.6572 l -8.94569,-0.26459 7.76076,-4.33151 c 2.70896,-1.51199 8.03121,-4.82113 7.0745,-6.67556 l -0.3602,-0.69764 c -0.23117,-0.44812 -0.72189,-0.63323 -1.37043,-0.6351 z" />
    <path
       id="rect10-1-2-2"
       style="fill:#1a1a1a;stroke-width:0.176243"
       d="m 112.6359,160.33752 c 1.94569,-0.006 5.31098,1.63742 7.34271,2.77141 l 9.57408,5.34385 c 2.41454,1.34765 6.42105,3.97887 6.63112,5.76038 0.11385,0.16765 0.17794,0.352 0.18347,0.55397 l 0.0217,0.79168 c 0.0575,2.10371 -5.50672,2.56639 -8.57983,2.6572 l -10.24175,0.30283 c -3.07311,0.0908 -9.27323,-0.0243 -9.33069,-2.12804 l -0.0217,-0.79168 c -0.0555,-2.03343 5.50672,-2.56639 8.57983,-2.6572 l 8.9457,-0.26459 -7.76076,-4.33151 c -2.70897,-1.51199 -8.03122,-4.82113 -7.07451,-6.67557 l 0.3602,-0.69763 c 0.23117,-0.44812 0.72189,-0.63323 1.37044,-0.6351 z" />
  </g>
</svg>
