<?xml version="1.0" encoding="UTF-8" standalone="no"?>
<!-- Created with Inkscape (http://www.inkscape.org/) -->

<svg
   width="98.687645mm"
   height="52.547318mm"
   viewBox="0 0 98.687645 52.547318"
   version="1.1"
   id="svg1"
   xmlns="http://www.w3.org/2000/svg"
   xmlns:svg="http://www.w3.org/2000/svg">
  <defs
     id="defs1" />
  <g
     id="layer1"
     transform="translate(-54.504147,-129.64584)">
    <path
       id="path1-8"
       style="fill:#f9f9f9;stroke-width:0.246024"
       d="m 84.550718,130.02628 c -1.513602,4.79767 -4.983374,10.26935 -11.716623,16.15353 -6.958013,6.08068 -13.114285,8.21438 -18.314644,8.24447 0,0.019 0,0.0383 0,0.0574 -0.456221,24.85213 9.389639,27.45912 15.773718,27.69132 6.384078,0.23222 24.098355,-1.13798 24.554576,-25.99013 0.279744,-15.23894 -4.922202,-22.64978 -10.295995,-26.15655 z" />
    <path
       id="path3"
       style="fill:#f9f9f9;stroke-width:0.246024"
       d="m 123.14522,129.64584 c 1.51361,4.79766 4.98338,10.26935 11.71663,16.15352 6.95801,6.08068 13.11428,8.21439 18.31464,8.24447 0,0.019 0,0.0383 0,0.0574 0.45622,24.85213 -9.38964,27.45912 -15.77372,27.69132 -6.38408,0.23223 -24.09835,-1.13797 -24.55457,-25.99013 -0.27975,-15.23894 4.9222,-22.64978 10.29599,-26.15654 z" />
  </g>
</svg>
