<?xml version="1.0" encoding="UTF-8" standalone="no"?>
<!-- Created with Inkscape (http://www.inkscape.org/) -->

<svg
   width="98.664207mm"
   height="50.770027mm"
   viewBox="0 0 98.664207 50.770027"
   version="1.1"
   id="svg1"
   xmlns="http://www.w3.org/2000/svg"
   xmlns:svg="http://www.w3.org/2000/svg">
  <defs
     id="defs1" />
  <g
     id="layer1"
     transform="translate(-96.572897,-188.11878)">
    <path
       id="path37"
       style="fill:#f9f9f9;stroke-width:0.246024"
       d="m 104.08025,189.01689 c -4.01606,3.94798 -7.281942,10.7154 -7.492048,22.16041 -0.456221,24.85213 9.390138,27.45911 15.774218,27.69133 6.38408,0.23222 24.09785,-1.138 24.55408,-25.99015 0.0317,-1.72794 -0.007,-3.35518 -0.10854,-4.88755 a 43.959303,29.84229 0 0 1 -32.72771,-18.97404 z" />
    <path
       id="path39"
       style="fill:#f9f9f9;stroke-width:0.246024"
       d="m 187.0576,188.11876 a 43.959303,29.84229 0 0 1 -32.06263,19.71042 c -0.0963,1.50101 -0.13279,3.09288 -0.10181,4.78059 0.45622,24.85214 18.4082,25.98465 24.79228,25.75243 6.38408,-0.23222 15.99224,-2.602 15.53601,-27.45414 -0.22172,-12.07764 -3.84569,-18.94601 -8.16385,-22.7893 z" />
  </g>
</svg>
