<?xml version="1.0" encoding="UTF-8" standalone="no"?>
<!-- Created with Inkscape (http://www.inkscape.org/) -->

<svg
   width="104.33827mm"
   height="26.453644mm"
   viewBox="0 0 104.33827 26.453644"
   version="1.1"
   id="svg1"
   xmlns="http://www.w3.org/2000/svg"
   xmlns:svg="http://www.w3.org/2000/svg">
  <defs
     id="defs1" />
  <g
     id="layer1"
     transform="translate(-82.814567,-58.737503)">
    <path
       id="path4"
       style="fill:#ff5555;stroke-width:0.115848"
       d="m 89.078743,58.737741 c -7.795287,0.05479 -9.548733,9.534657 1.919737,16.71566 8.894736,4.470745 17.39162,6.930417 25.28872,7.956524 5.42337,1.073812 11.49746,1.739159 18.00045,1.74842 v 0.0254 c 0.23259,0.0032 0.4646,0.0058 0.69606,0.0074 0.23146,-0.0026 0.46347,-0.004 0.69607,-0.0074 v -0.0254 c 6.50293,-0.0093 12.57707,-0.674608 18.00042,-1.74842 7.89713,-1.026107 16.39398,-3.485779 25.28874,-7.956524 11.46845,-7.181003 9.715,-16.660865 1.91974,-16.71566 -1.79893,-0.0127 -3.91954,0.476567 -6.27374,1.611868 -10.4075,5.01896 -24.11328,10.734331 -39.63123,10.750074 -15.518,-0.01587 -29.22373,-5.731114 -39.631247,-10.750074 -2.354183,-1.135301 -4.474792,-1.624515 -6.27372,-1.611868 z" />
  </g>
</svg>
