<?xml version="1.0" encoding="UTF-8" standalone="no"?>
<!-- Created with Inkscape (http://www.inkscape.org/) -->

<svg
   width="53.442013mm"
   height="24.423025mm"
   viewBox="0 0 53.442013 24.423025"
   version="1.1"
   id="svg1"
   xmlns="http://www.w3.org/2000/svg"
   xmlns:svg="http://www.w3.org/2000/svg">
  <defs
     id="defs1" />
  <g
     id="layer1"
     transform="translate(-122.76667,-181.76875)">
    <path
       id="rect10-4"
       style="fill:#1a1a1a;stroke-width:0.228652"
       d="m 129.06567,182.14919 c 2.57313,0 4.73742,4.75872 4.73742,7.38325 v 9.27608 c 0,2.62454 -0.86527,7.38325 -4.73742,7.38325 h -1.56159 c -4.14938,0 -4.73742,-4.75871 -4.73742,-7.38325 v -8.74691 c 0,-2.62454 2.05835,-7.91242 4.73742,-7.91242" />
    <path
       id="path6"
       style="fill:#1a1a1a;stroke-width:0.228652"
       d="m 169.90967,181.76875 c -2.57313,0 -4.73742,4.75871 -4.73742,7.38324 v 9.27608 c 0,2.62454 0.86527,7.38325 4.73742,7.38325 h 1.56159 c 4.14939,0 4.73742,-4.75871 4.73742,-7.38325 v -8.74691 c 0,-2.62453 -2.05835,-7.91241 -4.73742,-7.91241" />
  </g>
</svg>
